<?xml version="1.0" encoding="UTF-8" standalone="no"?><!DOCTYPE svg PUBLIC "-//W3C//DTD SVG 1.1//EN" "http://www.w3.org/Graphics/SVG/1.1/DTD/svg11.dtd"><svg width="100%" height="100%" viewBox="0 0 1440 1575" version="1.1" xmlns="http://www.w3.org/2000/svg" xmlns:xlink="http://www.w3.org/1999/xlink" xml:space="preserve" xmlns:serif="http://www.serif.com/" style="fill-rule:evenodd;clip-rule:evenodd;stroke-linecap:round;stroke-linejoin:round;stroke-miterlimit:1.5;"><g><circle cx="720" cy="787.5" r="648.943" style="fill:#0084be;"/><g><path d="M553.827,430.04l-106.993,0c-4.493,5.404 -7.604,11.859 -7.225,19.243c1.231,24.029 -1.232,14.199 -20.936,32.767c-19.704,18.568 -9.852,52.427 -7.389,70.994c2.463,18.568 -14.778,18.568 -23.399,36.044c-8.62,17.475 62.465,37.014 77.585,72.086c12.193,28.282 72.825,47.808 109.604,41.505c23.39,-4.009 11.125,20.613 12.117,24.278c0.992,3.665 -7.593,27.26 -45.929,25.113c-38.336,-2.148 -9.281,22.37 -8.878,27.469c0.404,5.099 0.404,32.779 3.632,38.623c3.228,5.845 -14.931,18.372 17.756,38.414c17.262,10.584 18.655,12.585 16.958,12.274c-0.286,-0.905 -1.108,-1.567 -2.834,-1.895c-2.666,-0.507 1.318,1.617 2.834,1.895c0.651,2.055 -1.467,5.362 -2.027,8.842c-0.807,5.011 6.86,1.79 11.703,4.653c4.842,2.863 16.877,19.433 11.207,25.335c-40.547,42.199 -29.546,151.585 20.158,196.875c26.061,23.747 75.864,29.459 121.673,24.613c49.172,-5.203 95.075,-44.57 140.681,-59.51c65.57,-21.481 123.692,-18.952 132.328,-15.422c11.744,4.8 29.223,-30.754 45.288,-64.964c6.543,-13.935 -12.107,-14.674 -12.914,-21.116c-0.807,-6.443 3.632,-41.159 0,-47.959c-3.632,-6.8 4.036,-39.369 -2.017,-43.664c-6.054,-4.294 -34.806,-3.757 -43.381,-20.758c-8.575,-17 -25.726,-3.579 -27.239,-14.763c-1.513,-11.184 -4.035,-31.316 3.027,-37.579c7.061,-6.264 24.212,-29.08 20.681,-38.027c-3.531,-8.948 -33.796,-18.79 -40.354,-24.606c-6.558,-5.815 -21.69,0.448 -37.327,-7.158c-15.638,-7.605 12.075,10.64 -40.889,-6.361c-52.965,-17 -53.251,2.781 -58.8,0.097c-5.548,-2.684 -10.782,6.463 -14.656,-29.041c-3.874,-35.503 11.665,-29.238 19.09,-42.123c7.426,-12.884 -54.111,-32 -46.084,-42.518c7.988,-10.467 25.857,-39.584 18.371,-46.384c-6.304,-5.725 -4.782,-16.606 -18.371,-17.179c-13.589,-0.572 -24.888,18.325 -30.699,20.329c-5.811,2.004 -23.89,-14.03 -32.607,-16.32c-8.716,-2.291 -43.474,-2.107 -57.598,-6.044c-14.124,-3.937 -12.782,-43.033 -15.607,-51.264c-2.825,-8.232 -44.051,-47.513 -48.49,-57.176c-1.71,-3.723 -24.752,-1.111 -32.05,-9.618Z" style="fill:#0084be;stroke:#0046ff;stroke-opacity:0.39;stroke-width:6.25px;"/><path d="M524.585,449.232c-0,-0 -28.36,12.713 -27.382,34.227c0.978,21.514 -0.978,12.713 -16.624,29.338c-15.647,16.624 -7.824,46.94 -5.868,63.564c1.956,16.625 -11.735,16.625 -18.58,32.272c-6.846,15.647 31.293,65.52 61.609,64.542c30.315,-0.977 48.896,-44.984 56.719,-50.851c7.823,-5.868 31.293,3.911 34.227,16.624c2.934,12.713 -15.647,54.764 -3.912,71.388c11.735,16.625 18.424,3.625 22.493,3.888c4.069,0.262 2.494,14.569 3.281,17.85c0.788,3.282 10.238,2.232 13.388,2.494c3.15,0.263 -35.569,21.913 -66.011,19.991c-30.443,-1.923 -7.371,20.029 -7.05,24.594c0.32,4.566 0.32,29.349 2.884,34.582c2.563,5.233 -11.857,16.449 14.099,34.394c25.956,17.945 6.73,8.331 11.216,9.292c4.486,0.962 1.282,5.128 0.641,9.614c-0.641,4.486 5.447,1.602 9.293,4.166c3.845,2.563 -6.089,8.652 -0,11.215c6.088,2.564 51.271,-3.525 80.431,-30.442c29.161,-26.917 -44.541,57.36 -69.536,62.487c-24.995,5.127 -38.133,95.813 -18.906,115.039c19.226,19.227 11.215,-15.946 22.11,30.763c10.895,46.709 40.697,36.455 47.747,39.659c7.049,3.204 56.718,13.459 82.354,-13.138c25.635,-26.597 15.061,-17.304 24.674,-22.111c9.613,-4.807 36.851,-3.845 42.299,-6.409c5.447,-2.563 1.282,-16.343 15.381,-22.751c14.1,-6.409 21.79,-15.382 38.774,-14.1c16.983,1.282 16.342,5.127 21.79,9.293c5.448,4.166 34.288,2.884 43.581,-3.845c9.292,-6.73 0.64,-9.614 5.447,-14.1c4.807,-4.486 6.729,-7.691 6.409,-16.984c-0.32,-9.292 10.895,-14.099 8.332,-21.79c-2.564,-7.69 23.712,6.73 23.392,-7.05c-0.32,-13.779 -9.613,-13.138 -10.254,-18.906c-0.641,-5.768 2.884,-36.851 -0,-42.939c-2.884,-6.089 3.204,-35.249 -1.602,-39.095c-4.807,-3.845 -27.639,-3.364 -34.448,-18.585c-6.81,-15.221 -20.429,-3.205 -21.63,-13.219c-1.202,-10.014 -3.205,-28.039 2.403,-33.646c5.608,-5.608 19.227,-26.037 16.423,-34.048c-2.804,-8.011 -26.837,-16.823 -32.045,-22.03c-5.207,-5.207 -17.224,0.4 -29.641,-6.409c-12.417,-6.81 -4.406,20.428 -46.464,5.207c-42.059,-15.221 2.403,17.625 -12.417,28.84c-14.821,11.216 2.002,19.627 -2.404,17.224c-4.406,-2.403 -20.028,-16.823 -24.434,-22.431c-4.406,-5.608 -11.927,-28.949 -15.003,-60.737c-3.077,-31.788 13.843,-25.892 19.739,-37.428c5.896,-11.536 -26.869,-27.302 -31.251,-38.069c-4.383,-10.767 9.204,-36.915 14.588,-41.53c5.383,-4.614 -3.797,-14.868 -14.588,-15.381c-10.791,-0.513 -19.764,16.407 -24.378,18.201c-4.615,1.795 -18.971,-12.561 -25.892,-14.612c-6.922,-2.051 -43.965,3.717 -55.181,0.192c-11.215,-3.525 -23.072,-32.365 -25.315,-39.735c-2.243,-7.37 -28.519,-44.221 -32.044,-52.873c-3.525,-8.652 -14.025,-47.038 -72.864,-35.696" style="fill:#ffea73;stroke:#ffea73;stroke-width:9.38px;"/><circle cx="742.458" cy="768.319" r="10.253" style="fill:#bfa92c;"/><circle cx="694.477" cy="863.979" r="10.253" style="fill:#bfa92c;"/><circle cx="590.474" cy="834.776" r="10.253" style="fill:#bfa92c;"/><circle cx="855.438" cy="815.311" r="10.253" style="fill:#bfa92c;"/><circle cx="831.344" cy="899.021" r="10.253" style="fill:#bfa92c;"/><circle cx="736.259" cy="958.862" r="10.253" style="fill:#bfa92c;"/><circle cx="647.916" cy="666.42" r="10.253" style="fill:#bfa92c;"/><circle cx="669.95" cy="649.841" r="10.253" style="fill:#bfa92c;"/><circle cx="583.028" cy="564.606" r="10.253" style="fill:#bfa92c;"/><circle cx="742.458" cy="768.319" r="6.142" style="fill:#7c6c0e;"/><circle cx="694.477" cy="863.979" r="6.142" style="fill:#7c6c0e;"/><circle cx="590.474" cy="834.776" r="6.142" style="fill:#7c6c0e;"/><circle cx="855.438" cy="815.311" r="6.142" style="fill:#7c6c0e;"/><circle cx="863.228" cy="773.139" r="6.142" style="fill:#7c6c0e;"/><circle cx="831.344" cy="899.021" r="6.142" style="fill:#7c6c0e;"/><circle cx="736.259" cy="958.862" r="6.142" style="fill:#7c6c0e;"/><circle cx="647.916" cy="666.42" r="6.142" style="fill:#7c6c0e;"/><circle cx="669.95" cy="649.841" r="6.142" style="fill:#7c6c0e;"/><circle cx="583.028" cy="564.606" r="6.142" style="fill:#7c6c0e;"/><text x="669.664px" y="800.414px" style="font-family:'Poppins-BoldItalic', 'Poppins';font-weight:700;font-style:italic;font-size:18.143px;fill:#010100;">Chippenden</text><text x="659.064px" y="898.878px" style="font-family:'Poppins-BoldItalic', 'Poppins';font-weight:700;font-style:italic;font-size:18.143px;fill:#010100;">Priestown</text><text x="574.538px" y="816.489px" style="font-family:'Poppins-BoldItalic', 'Poppins';font-weight:700;font-style:italic;font-size:18.143px;fill:#010100;">Blackpool</text><text x="782.644px" y="847.406px" style="font-family:'Poppins-BoldItalic', 'Poppins';font-weight:700;font-style:italic;font-size:18.143px;fill:#010100;">Pendle</text><text x="831.432px" y="765.306px" style="font-family:'Poppins-BoldItalic', 'Poppins';font-weight:700;font-style:italic;font-size:18.143px;fill:#010100;">Tour Malkin</text><text x="758.55px" y="931.116px" style="font-family:'Poppins-BoldItalic', 'Poppins';font-weight:700;font-style:italic;font-size:18.143px;fill:#010100;">Anglezarke</text><text x="663.465px" y="990.956px" style="font-family:'Poppins-BoldItalic', 'Poppins';font-weight:700;font-style:italic;font-size:18.143px;fill:#010100;">Adlington</text><text x="610.953px" y="700.615px" style="font-family:'Poppins-BoldItalic', 'Poppins';font-weight:700;font-style:italic;font-size:18.143px;fill:#010100;">Caster</text><text x="670.341px" y="677.321px" style="font-family:'Poppins-BoldItalic', 'Poppins';font-weight:700;font-style:italic;font-size:18.143px;fill:#010100;">Lancaster</text><text x="546.065px" y="598.801px" style="font-family:'Poppins-BoldItalic', 'Poppins';font-weight:700;font-style:italic;font-size:18.143px;fill:#010100;">Cartmel</text></g><path d="M1292.93,954.148c-23.455,-10.605 -46.911,-9.207 -70.366,-0c-19.372,11.319 -33.949,28.74 -45.806,49.623c13.94,46.983 -47.716,126.984 -47.716,126.984l-13.36,50.516l11.452,64.893l20.74,29.273l66.88,-60.083c96.606,-105.026 128.333,-193.538 78.176,-261.206" style="fill:#ffea73;"/><path d="M1337.03,978.184c-0,-0 -12.983,-24.553 -14.573,-25.309c-7.649,-3.635 -29.907,-14.201 -30.362,-14.297c-7.063,-1.498 -56.72,-11.497 -76.005,-0.819c-20.784,11.507 -51.304,48.031 -51.304,48.031c0,0 -1.501,29.519 -2.001,35.023c-0.5,5.504 -1.501,44.029 -11.007,54.035c-9.506,10.007 -24.648,37.525 -36.09,46.531c-11.441,9.006 -18.446,36.524 -17.945,66.043c0.5,29.52 -0,58.539 7.504,65.043c7.505,6.504 20.514,24.516 31.521,33.522" style="fill:none;stroke:#0046ff;stroke-opacity:0.39;stroke-width:6.25px;"/><path d="M735.819,138.557c-0,0 63.869,81.351 96.937,92.608c33.069,11.258 83.101,37.525 91.857,56.287c8.755,18.762 88.807,42.527 123.83,53.785c35.022,11.257 81.302,10.006 92.559,20.012c11.258,10.007 54.346,-14.779 54.346,-14.779c-0,-0 -171.644,-204.12 -459.529,-207.913Z" style="fill:#ffea73;"/><path d="M694.309,138.557c0,0 34.188,67.039 41.51,71.042c7.322,4.002 14.526,8.005 26.534,14.409c12.008,6.404 19.212,26.953 28.018,27.085c8.806,0.132 1.601,-3.07 25.617,9.739c24.015,12.808 51.233,33.621 51.233,33.621c-0,0 4.106,17.612 19.264,30.42c15.158,12.808 5.552,22.415 27.166,28.819c21.614,6.404 35.02,1.463 51.932,9.937c16.912,8.475 1.702,9.275 44.13,14.879c42.427,5.603 49.632,5.603 67.243,7.204c17.612,1.601 73.648,7.205 73.648,7.205c-0,-0 43.858,-3.202 44.744,-7.205c0.885,-4.002 17.696,-22.083 17.696,-22.083" style="fill:none;stroke:#006cd7;stroke-width:3.13px;"/><path d="M147.361,737.464c-0,0 30.247,-21.263 67.771,-18.762c37.525,2.502 35.023,-15.009 60.039,38.775c25.016,53.785 35.023,103.817 35.023,103.817l20.013,63.792l-21.264,82.553l-43.778,71.296l-53.785,73.798l-19.355,11.875c-3.185,1.225 -37.814,-55.089 -44.664,-64.409c-12.116,-16.487 -38.903,-81.01 -55.788,-148.064c-16.794,-66.694 -22.284,-127.856 -20.516,-148.378l76.304,-66.293Z" style="fill:#ffea73;"/><path d="M74.198,742.625l84.678,-45.191l57.225,-11.284c-0,0 -12.008,-4.002 31.02,10.007c43.027,14.009 52.033,-8.582 60.038,21.726c8.006,30.307 4.003,50.889 13.009,69.617c9.006,18.728 10.039,65.758 10.039,65.758c-0,0 8.973,34.068 22.982,53.057c14.009,18.99 26.017,33.999 15.01,58.015c-11.007,24.015 -39.025,51.033 -50.033,69.045c-11.007,18.011 -18.011,44.028 -26.016,70.045c-8.005,26.017 -19.012,24.015 -45.029,40.026c-26.017,16.01 -35.941,34.022 -46.489,34.022" style="fill:none;stroke:#006cd7;stroke-width:3.13px;"/><g><path d="M310.88,388.766l-0.942,0c-5.881,0 -11.363,-1.541 -16.444,-4.624c-5.082,-3.084 -9.093,-7.18 -12.034,-12.291c-2.94,-5.11 -4.41,-10.548 -4.41,-16.315c-0,-9.079 3.283,-16.887 9.849,-23.425c6.566,-6.537 14.417,-9.806 23.553,-9.806c6.109,-0 11.905,1.599 17.386,4.796l-0,3.169c-5.367,-3.654 -11.163,-5.481 -17.386,-5.481c-8.394,-0 -15.588,3.012 -21.583,9.035c-5.995,6.024 -8.993,13.247 -8.993,21.669c-0,8.422 2.998,15.659 8.993,21.711c5.995,6.053 13.189,9.079 21.583,9.079c6.223,-0 12.019,-1.827 17.386,-5.482l-0,3.169c-5.196,3.198 -10.849,4.796 -16.958,4.796Z" style="fill:#07519a;fill-rule:nonzero;"/><path d="M352.761,386.197l-0,2.398c-4.054,0 -7.508,-1.356 -10.363,-4.068c-2.855,-2.712 -4.283,-6.181 -4.283,-10.406l0,-50.531l2.741,-0l0,50.531c0,3.483 1.156,6.366 3.469,8.65c2.312,2.284 5.124,3.426 8.436,3.426Z" style="fill:#07519a;fill-rule:nonzero;"/><path d="M363.467,349.369l-0,38.455l-2.741,0l0,-38.455l2.741,0Zm-1.371,-9.421c-1.655,0 -2.483,-0.771 -2.483,-2.312c-0,-1.542 0.828,-2.313 2.483,-2.313c1.656,0 2.484,0.771 2.484,2.313c0,1.541 -0.828,2.312 -2.484,2.312Z" style="fill:#07519a;fill-rule:nonzero;"/><path d="M413.313,349.283l0,55.671l-2.741,-0l0,-26.722c-1.598,3.255 -3.997,5.824 -7.194,7.708c-3.197,1.884 -6.623,2.826 -10.278,2.826c-5.595,0 -10.391,-1.984 -14.388,-5.952c-3.997,-3.968 -5.995,-8.722 -5.995,-14.26c-0,-5.539 1.998,-10.292 5.995,-14.26c3.997,-3.968 8.793,-5.953 14.388,-5.953c3.655,0 7.152,0.971 10.492,2.912c3.34,1.942 5.667,4.511 6.98,7.709l0,-9.679l2.741,0Zm-37.856,19.357c0,4.796 1.756,8.95 5.268,12.461c3.511,3.512 7.679,5.267 12.504,5.267c4.825,0 8.95,-1.755 12.376,-5.267c3.426,-3.511 5.139,-7.68 5.139,-12.504c-0,-4.825 -1.728,-9.007 -5.182,-12.547c-3.454,-3.541 -7.58,-5.311 -12.376,-5.311c-4.796,0 -8.95,1.785 -12.461,5.353c-3.512,3.569 -5.268,7.751 -5.268,12.548Z" style="fill:#07519a;fill-rule:nonzero;"/><path d="M454.595,349.283l2.74,0l0,38.541l-2.74,0l-0,-7.793c-2.912,5.823 -7.88,8.735 -14.903,8.735c-4.796,0 -8.821,-1.655 -12.076,-4.967c-3.255,-3.312 -4.882,-7.337 -4.882,-12.076l0,-22.44l2.741,0l-0,22.44c-0,3.94 1.384,7.365 4.154,10.277c2.769,2.912 6.123,4.368 10.063,4.368c3.94,0 7.409,-1.456 10.406,-4.368c2.998,-2.912 4.497,-6.337 4.497,-10.277l-0,-22.44Z" style="fill:#07519a;fill-rule:nonzero;"/><path d="M486.027,388.852l-0.771,0c-5.424,0 -10.149,-2.041 -14.174,-6.124c-4.026,-4.082 -6.039,-8.835 -6.039,-14.26c0,-5.424 1.999,-10.12 5.996,-14.089c3.997,-3.968 8.935,-5.952 14.817,-5.952c5.881,0 10.934,2.341 15.159,7.023l-26.893,26.55c3.711,2.969 7.28,4.454 10.706,4.454c3.426,0 6.495,-0.785 9.207,-2.355c2.712,-1.57 4.953,-3.669 6.723,-6.295l0,4.368c-4.054,4.453 -8.964,6.68 -14.731,6.68Zm-0.899,-38.027c-4.54,0 -8.565,1.756 -12.077,5.267c-3.511,3.512 -5.267,7.552 -5.267,12.119c0,4.568 1.513,8.565 4.539,11.991l24.923,-24.752c-3.54,-3.083 -7.579,-4.625 -12.118,-4.625Z" style="fill:#07519a;fill-rule:nonzero;"/><path d="M532.704,385.426l0,2.398l-26.55,0l21.925,-36.142l-19.613,-0l0,-2.399l24.495,0l-22.011,36.143l21.754,0Z" style="fill:#07519a;fill-rule:nonzero;"/><path d="M649.442,438.424c-1.484,-0 -2.797,0.485 -3.939,1.456c-1.142,0.97 -1.713,2.169 -1.713,3.597c-0,1.427 0.642,2.741 1.927,3.94c1.285,1.199 2.826,2.298 4.625,3.297c1.798,0.999 3.611,2.07 5.438,3.212c1.827,1.142 3.383,2.598 4.668,4.368c1.285,1.77 1.927,3.797 1.927,6.081c0,3.368 -1.27,6.238 -3.811,8.607c-2.541,2.37 -5.61,3.554 -9.207,3.554c-2.284,0 -4.411,-0.499 -6.381,-1.498c-1.97,-1 -3.411,-2.327 -4.325,-3.983l0,-4.111c2.17,4.796 5.653,7.194 10.449,7.194c2.969,0 5.467,-0.913 7.494,-2.74c2.027,-1.828 3.04,-3.869 3.04,-6.124c0,-2.255 -0.642,-4.154 -1.927,-5.696c-1.284,-1.541 -2.84,-2.854 -4.667,-3.939c-1.827,-1.085 -3.64,-2.156 -5.439,-3.212c-1.798,-1.056 -3.34,-2.341 -4.625,-3.854c-1.285,-1.513 -1.927,-3.283 -1.927,-5.31c0,-2.027 0.814,-3.74 2.441,-5.139c1.627,-1.399 3.726,-2.098 6.295,-2.098c2.569,-0 4.768,0.999 6.595,2.997l-0,3.512c-1.827,-2.741 -4.14,-4.111 -6.938,-4.111Z" style="fill:#07519a;fill-rule:nonzero;"/><path d="M701.516,437.053l2.74,0l0,38.541l-2.74,0l-0,-7.794c-2.912,5.824 -7.88,8.736 -14.903,8.736c-4.796,0 -8.822,-1.655 -12.076,-4.967c-3.255,-3.312 -4.882,-7.337 -4.882,-12.076l0,-22.44l2.741,0l-0,22.44c-0,3.939 1.384,7.365 4.154,10.277c2.769,2.912 6.123,4.368 10.063,4.368c3.94,0 7.408,-1.456 10.406,-4.368c2.998,-2.912 4.497,-6.338 4.497,-10.277l-0,-22.44Z" style="fill:#07519a;fill-rule:nonzero;"/><path d="M736.202,442.278c-2.512,-2.512 -5.281,-3.769 -8.307,-3.769c-3.027,0 -5.696,1.142 -8.008,3.426c-2.313,2.284 -3.469,4.939 -3.469,7.965l-0,25.694l-2.741,0l0,-38.541l2.741,0l-0,5.739c1.028,-1.942 2.626,-3.54 4.796,-4.797c2.17,-1.256 4.597,-1.884 7.28,-1.884c2.684,0 5.253,0.914 7.708,2.741l0,3.426Z" style="fill:#07519a;fill-rule:nonzero;"/><path d="M812.411,538.202l0,2.398c-4.054,-0 -7.508,-1.356 -10.363,-4.068c-2.855,-2.712 -4.282,-6.181 -4.282,-10.406l-0,-50.532l2.74,0l0,50.532c0,3.483 1.157,6.366 3.469,8.65c2.312,2.284 5.125,3.426 8.436,3.426Z" style="fill:#07519a;fill-rule:nonzero;"/><path d="M835.107,540.857l-0.77,-0c-5.425,-0 -10.149,-2.041 -14.175,-6.124c-4.025,-4.082 -6.038,-8.836 -6.038,-14.26c0,-5.424 1.999,-10.121 5.995,-14.089c3.997,-3.968 8.936,-5.952 14.817,-5.952c5.881,-0 10.934,2.341 15.16,7.023l-26.893,26.55c3.711,2.969 7.28,4.454 10.705,4.454c3.426,-0 6.495,-0.785 9.207,-2.356c2.713,-1.57 4.954,-3.668 6.724,-6.295l-0,4.368c-4.054,4.454 -8.965,6.681 -14.732,6.681Zm-0.899,-38.027c-4.539,-0 -8.564,1.756 -12.076,5.267c-3.511,3.512 -5.267,7.551 -5.267,12.119c-0,4.568 1.513,8.565 4.539,11.991l24.923,-24.752c-3.54,-3.084 -7.58,-4.625 -12.119,-4.625Z" style="fill:#07519a;fill-rule:nonzero;"/><path d="M866.625,502.659c-1.484,-0 -2.797,0.485 -3.939,1.456c-1.142,0.97 -1.713,2.169 -1.713,3.597c-0,1.427 0.642,2.74 1.927,3.939c1.284,1.199 2.826,2.299 4.625,3.298c1.798,0.999 3.611,2.07 5.438,3.212c1.827,1.141 3.383,2.597 4.668,4.368c1.285,1.77 1.927,3.796 1.927,6.08c-0,3.369 -1.27,6.238 -3.811,8.608c-2.541,2.369 -5.61,3.554 -9.207,3.554c-2.284,0 -4.411,-0.499 -6.381,-1.499c-1.97,-0.999 -3.412,-2.326 -4.325,-3.982l-0,-4.111c2.17,4.796 5.653,7.194 10.449,7.194c2.969,0 5.467,-0.913 7.494,-2.741c2.027,-1.827 3.04,-3.868 3.04,-6.123c0,-2.256 -0.642,-4.154 -1.927,-5.696c-1.284,-1.541 -2.84,-2.855 -4.668,-3.94c-1.827,-1.084 -3.639,-2.155 -5.438,-3.211c-1.799,-1.057 -3.34,-2.341 -4.625,-3.854c-1.285,-1.513 -1.927,-3.283 -1.927,-5.31c-0,-2.027 0.814,-3.74 2.441,-5.139c1.627,-1.399 3.726,-2.099 6.295,-2.099c2.569,0 4.768,1 6.595,2.998l-0,3.512c-1.827,-2.741 -4.14,-4.111 -6.938,-4.111Z" style="fill:#07519a;fill-rule:nonzero;"/><path d="M942.262,618.766l2.484,0l-18.928,39.655l-19.014,-39.655l2.998,0l16.273,33.831l16.187,-33.831Z" style="fill:#07519a;fill-rule:nonzero;"/><path d="M955.88,618.852l-0,38.455l-2.741,0l-0,-38.455l2.741,-0Zm-1.371,-9.421c-1.656,-0 -2.483,-0.771 -2.483,-2.313c-0,-1.541 0.827,-2.312 2.483,-2.312c1.656,-0 2.484,0.771 2.484,2.312c0,1.542 -0.828,2.313 -2.484,2.313Z" style="fill:#07519a;fill-rule:nonzero;"/><path d="M981.916,655.68l0,2.398c-4.054,-0 -7.508,-1.356 -10.363,-4.068c-2.855,-2.712 -4.282,-6.181 -4.282,-10.406l-0,-50.532l2.74,0l0,50.532c0,3.483 1.157,6.366 3.469,8.65c2.312,2.284 5.124,3.426 8.436,3.426Z" style="fill:#07519a;fill-rule:nonzero;"/><path d="M1003.41,655.68l0,2.398c-4.054,-0 -7.508,-1.356 -10.363,-4.068c-2.855,-2.712 -4.282,-6.181 -4.282,-10.406l-0,-50.532l2.741,0l-0,50.532c-0,3.483 1.156,6.366 3.468,8.65c2.313,2.284 5.125,3.426 8.436,3.426Z" style="fill:#07519a;fill-rule:nonzero;"/><path d="M1026.11,658.335l-0.771,-0c-5.424,-0 -10.149,-2.041 -14.175,-6.124c-4.025,-4.082 -6.038,-8.836 -6.038,-14.26c0,-5.424 1.999,-10.12 5.996,-14.089c3.996,-3.968 8.935,-5.952 14.816,-5.952c5.881,-0 10.935,2.341 15.16,7.023l-26.893,26.55c3.711,2.969 7.28,4.454 10.706,4.454c3.425,-0 6.494,-0.785 9.207,-2.355c2.712,-1.571 4.953,-3.669 6.723,-6.295l-0,4.367c-4.054,4.454 -8.964,6.681 -14.731,6.681Zm-0.9,-38.027c-4.539,-0 -8.564,1.756 -12.076,5.267c-3.511,3.512 -5.267,7.551 -5.267,12.119c0,4.568 1.513,8.565 4.539,11.991l24.923,-24.752c-3.54,-3.083 -7.579,-4.625 -12.119,-4.625Z" style="fill:#07519a;fill-rule:nonzero;"/><path d="M1057.63,620.137c-1.485,-0 -2.798,0.485 -3.94,1.456c-1.142,0.97 -1.713,2.169 -1.713,3.597c-0,1.427 0.642,2.74 1.927,3.939c1.285,1.2 2.826,2.299 4.625,3.298c1.798,0.999 3.611,2.07 5.438,3.212c1.828,1.142 3.383,2.598 4.668,4.368c1.285,1.77 1.927,3.797 1.927,6.08c0,3.369 -1.27,6.238 -3.811,8.608c-2.541,2.369 -5.61,3.554 -9.207,3.554c-2.284,0 -4.411,-0.499 -6.381,-1.499c-1.97,-0.999 -3.411,-2.326 -4.325,-3.982l0,-4.111c2.17,4.796 5.653,7.194 10.449,7.194c2.969,0 5.467,-0.913 7.494,-2.741c2.027,-1.827 3.04,-3.868 3.04,-6.123c0,-2.256 -0.642,-4.154 -1.927,-5.696c-1.284,-1.541 -2.84,-2.855 -4.667,-3.939c-1.827,-1.085 -3.64,-2.156 -5.439,-3.212c-1.798,-1.057 -3.34,-2.341 -4.625,-3.854c-1.284,-1.513 -1.927,-3.283 -1.927,-5.31c0,-2.027 0.814,-3.74 2.441,-5.139c1.627,-1.399 3.726,-2.098 6.295,-2.098c2.57,-0 4.768,0.999 6.595,2.997l-0,3.512c-1.827,-2.741 -4.14,-4.111 -6.937,-4.111Z" style="fill:#07519a;fill-rule:nonzero;"/></g></g></svg>