<?xml version="1.0" encoding="UTF-8" standalone="no"?><!DOCTYPE svg PUBLIC "-//W3C//DTD SVG 1.1//EN" "http://www.w3.org/Graphics/SVG/1.1/DTD/svg11.dtd"><svg width="100%" height="100%" viewBox="0 0 1015 245" version="1.1" xmlns="http://www.w3.org/2000/svg" xmlns:xlink="http://www.w3.org/1999/xlink" xml:space="preserve" xmlns:serif="http://www.serif.com/" style="fill-rule:evenodd;clip-rule:evenodd;stroke-linejoin:round;stroke-miterlimit:2;"><path d="M984.364,60.888c-0,-15.88 -12.893,-28.772 -28.773,-28.772c-27.017,-19.232 -54.034,-26.141 -81.051,-0c-30.838,-27.503 -61.677,-32.966 -92.516,-0c-27.204,-22.364 -54.408,-22.984 -81.612,-0c-30.359,-38.93 -56.127,-45.725 -74.393,-0c-24.293,-29.428 -48.586,-23.827 -72.88,-0c-21.277,-37.881 -42.554,-41.373 -63.831,-0c-33.106,-46.773 -66.211,-38.679 -99.317,-0c-22.814,-33.212 -45.627,-29.943 -68.44,-0c-35.141,-34.082 -70.281,-30.312 -105.422,-0c-27.863,-31.876 -55.725,-36.233 -83.588,-0c-25.594,-30.931 -51.188,-33.462 -76.782,-0c-15.88,-0 -28.773,12.892 -28.773,28.772c-25.778,35.457 -45.012,74.643 0,119.316c0,15.88 12.893,28.772 28.773,28.772c25.111,21.765 46.942,20.561 66.007,0c25.703,20.539 51.405,18.764 77.108,0c45.953,28.77 85.829,28.672 119.69,0c23.875,32.478 47.75,27.99 71.625,0c34.171,28.973 68.341,37.557 102.511,0c18.388,44.298 40.566,49.424 68.023,0c29.769,24.313 52.182,21.038 69.857,0c24.19,33.37 46.853,33.142 68.019,0c29.898,38.415 58.387,40.19 85.262,0c47.257,37.873 82.395,40.732 102.443,0c28.155,32.042 50.204,25.411 69.287,0c15.88,0 28.773,-12.892 28.773,-28.772c41.192,-39.772 40.435,-79.544 -0,-119.316Z" style="fill:#fff;"/><text x="347.149px" y="139.762px" style="font-family:'PoiretOne-Regular', 'Poiret One';font-size:57.418px;">L<tspan x="358.058px " y="139.762px ">&apos;</tspan>Epouvanteur</text></svg>