<?xml version="1.0" encoding="UTF-8" standalone="no"?><!DOCTYPE svg PUBLIC "-//W3C//DTD SVG 1.1//EN" "http://www.w3.org/Graphics/SVG/1.1/DTD/svg11.dtd"><svg width="100%" height="100%" viewBox="0 0 2560 2404" version="1.1" xmlns="http://www.w3.org/2000/svg" xmlns:xlink="http://www.w3.org/1999/xlink" xml:space="preserve" xmlns:serif="http://www.serif.com/" style="fill-rule:evenodd;clip-rule:evenodd;stroke-linejoin:round;stroke-miterlimit:2;"><g><rect x="0" y="-0.003" width="2560" height="2404.01" style="fill:#7e5e07;"/></g><g><g><path d="M2708.67,990.287l-132.837,0l-1381.69,889.074l132.836,0l1381.7,-889.074Z" style="fill:#322400;"/><path d="M4116.19,545.75l-1566.18,0l-1381.7,889.074l1566.18,0l1381.69,-889.074Z" style="fill:#322400;"/></g><g><rect x="1205.94" y="982.701" width="132.837" height="889.074" style="fill:#b18c28;"/><path d="M1338.77,1871.78l-11.801,7.586l0,-444.537l11.801,0l0,436.951Z" style="fill:#b18c28;"/><rect x="1194.14" y="990.287" width="132.837" height="889.074" style="fill:#b78600;"/><rect x="503.852" y="524.639" width="1566.18" height="892.284" style="fill:#b18c28;"/><rect x="477.462" y="545.75" width="1566.18" height="889.074" style="fill:#b78600;"/><path d="M477.462,545.75l26.39,-21.111l1566.18,-0l-0,892.284l-26.39,17.901l-0,-889.074l-1566.18,0Z" style="fill:#b18c28;"/></g></g><path d="M2621.74,2116.27l-2461.24,-0l-123.478,173.641l2461.24,0l123.478,-173.641Z" style="fill:#222;"/><rect x="-140.726" y="2135.48" width="2762.47" height="246.794" style="fill:#938473;"/><rect x="-202.465" y="2157.21" width="2762.47" height="246.794" style="fill:#71706f;"/></svg>