<?xml version="1.0" encoding="UTF-8" standalone="no"?><!DOCTYPE svg PUBLIC "-//W3C//DTD SVG 1.1//EN" "http://www.w3.org/Graphics/SVG/1.1/DTD/svg11.dtd"><svg width="100%" height="100%" viewBox="0 0 1440 1575" version="1.1" xmlns="http://www.w3.org/2000/svg" xmlns:xlink="http://www.w3.org/1999/xlink" xml:space="preserve" xmlns:serif="http://www.serif.com/" style="fill-rule:evenodd;clip-rule:evenodd;stroke-linejoin:round;stroke-miterlimit:2;"><g><path d="M1581.69,-132.256c-494.463,-1269.59 -1087.22,-1138.02 -1581.69,67.021l0,1640.24l1483.39,-0l98.298,-1707.26Z" style="fill:#4bac68;"/></g><g><path d="M1470.74,635.07l-98.101,-0l-350.456,396.602l98.101,-0l350.456,-396.602Z" style="fill:#020000;fill-opacity:0.39;"/><path d="M1262.52,760.77l-191.775,-0l-42.495,48.091l191.775,-0l42.495,-48.091Z" style="fill:#020000;fill-opacity:0.39;"/><path d="M1546.27,765.344l-191.775,-0l-42.495,48.091l191.775,-0l42.495,-48.091Z" style="fill:#020000;fill-opacity:0.39;"/></g><g><rect x="1047.02" y="543.328" width="98.101" height="463.503" style="fill:#806f6f;"/><rect x="852.077" y="704.339" width="481.503" height="78.301" style="fill:#806f6f;"/><path d="M1120.28,568.169l-98.101,-0l0,463.503l98.101,-0l0,-463.503Z" style="fill:#8f8f8f;"/><rect x="830.477" y="721.62" width="481.503" height="78.301" style="fill:#8f8f8f;"/><path d="M830.477,721.62l21.6,-17.281l170.101,0l0,-136.17l24.841,-24.841l98.1,0l0,161.011l188.461,0l0,78.301l-21.6,17.28l-166.861,0l0,206.911l-24.84,24.841l0,-231.752l191.701,0l0,-78.3l-191.701,-0l0,-153.451l-98.101,-0l0,153.451l-191.701,-0Z" style="fill:#806f6f;"/></g></svg>