<?xml version="1.0" encoding="UTF-8" standalone="no"?><!DOCTYPE svg PUBLIC "-//W3C//DTD SVG 1.1//EN" "http://www.w3.org/Graphics/SVG/1.1/DTD/svg11.dtd"><svg width="100%" height="100%" viewBox="0 0 1440 1575" version="1.1" xmlns="http://www.w3.org/2000/svg" xmlns:xlink="http://www.w3.org/1999/xlink" xml:space="preserve" xmlns:serif="http://www.serif.com/" style="fill-rule:evenodd;clip-rule:evenodd;stroke-linecap:round;stroke-linejoin:round;stroke-miterlimit:1.5;"><g><path d="M1581.69,1290.73c-494.463,-1269.59 -1087.22,-1138.02 -1581.69,67.022l98.298,22684.6l1483.39,-0l-0,-22751.7Z" style="fill:#4bac68;"/><path d="M723.136,408.368c23.471,-5.416 674.099,641.812 716.864,833.606c44.671,200.343 34.748,-523.358 34.748,-523.358c-0,0 -480.754,-416.671 -751.612,-310.248Z" style="fill:#457c55;"/></g><g><path d="M310.764,127.509l-20.284,27.528l838.756,0l0,249.024l20.284,-27.529l0,-249.023l-838.756,-0Z" style="fill:#5e2814;"/><path d="M310.764,510.948l-20.284,27.529l838.756,-0l0,249.023l20.284,-27.528l0,-249.024l-838.756,0Z" style="fill:#5e2814;"/><rect x="290.48" y="155.037" width="838.756" height="249.023" style="fill:#774634;"/><rect x="290.48" y="538.477" width="838.756" height="249.023" style="fill:#774634;"/><g><g><path d="M695.315,478.61c-0,-0 3.385,22.744 17.064,25.261" style="fill:none;stroke:#c0c0c0;stroke-width:4.88px;"/><path d="M712.379,478.61c-0,-0 -3.386,22.744 -17.064,25.261" style="fill:none;stroke:#c0c0c0;stroke-width:4.88px;"/></g><g><path d="M695.315,505.325c-0,0 3.385,22.745 17.064,25.261" style="fill:none;stroke:#c0c0c0;stroke-width:4.88px;"/><path d="M712.379,505.325c-0,0 -3.386,22.745 -17.064,25.261" style="fill:none;stroke:#c0c0c0;stroke-width:4.88px;"/></g><g><path d="M695.315,401.934c-0,0 3.385,22.744 17.064,25.261" style="fill:none;stroke:#c0c0c0;stroke-width:4.88px;"/><path d="M712.379,401.934c-0,0 -3.386,22.744 -17.064,25.261" style="fill:none;stroke:#c0c0c0;stroke-width:4.88px;"/></g><g><path d="M695.315,428.742c-0,-0 3.385,22.744 17.064,25.26" style="fill:none;stroke:#c0c0c0;stroke-width:4.88px;"/><path d="M712.379,428.742c-0,-0 -3.386,22.744 -17.064,25.26" style="fill:none;stroke:#c0c0c0;stroke-width:4.88px;"/></g><g><path d="M695.315,454.705c-0,0 3.385,22.744 17.064,25.261" style="fill:none;stroke:#c0c0c0;stroke-width:4.88px;"/><path d="M712.379,454.705c-0,0 -3.386,22.744 -17.064,25.261" style="fill:none;stroke:#c0c0c0;stroke-width:4.88px;"/></g></g><text x="358.423px" y="364.96px" style="font-family:'PoiretOne-Regular', 'Poiret One';font-size:214.062px;fill:#fff;">L<tspan x="399.094px " y="364.96px ">&apos;</tspan>Histoire</text><text x="332.127px" y="673.847px" style="font-family:'PoiretOne-Regular', 'Poiret One';font-size:90.554px;fill:#fff;">Attention aux spoils</text><text x="514.294px" y="746.28px" style="font-family:'PoiretOne-Regular', 'Poiret One';font-size:47.513px;fill:#fff;">Cliquez sur l<tspan x="759.699px " y="746.28px ">e</tspan>s livres</text><path d="M1129.24,155.037l20.284,-27.528l0,249.023l-20.284,27.529l0,-249.024Z" style="fill:#180600;fill-opacity:0.34;"/><path d="M1129.24,538.477l20.284,-27.529l0,249.024l-20.284,27.528l0,-249.023Z" style="fill:#180600;fill-opacity:0.34;"/></g></svg>