<?xml version="1.0" encoding="UTF-8" standalone="no"?>
<!DOCTYPE svg PUBLIC "-//W3C//DTD SVG 1.1//EN" "http://www.w3.org/Graphics/SVG/1.1/DTD/svg11.dtd">
<svg width="100%" height="100%" viewBox="0 0 150 150" version="1.1" xmlns="http://www.w3.org/2000/svg" xmlns:xlink="http://www.w3.org/1999/xlink" xml:space="preserve" xmlns:serif="http://www.serif.com/" style="fill-rule:evenodd;clip-rule:evenodd;stroke-linecap:round;stroke-linejoin:round;stroke-miterlimit:1.5;">
    <g transform="matrix(1.17957,0,0,1.17957,-1173.78,-798.366)">
        <g transform="matrix(1,0,0,1,-4127.93,-1203.91)">
            <circle cx="5186.61" cy="1944.33" r="56.713" style="fill:none;stroke:black;stroke-width:2.54px;"/>
        </g>
        <g transform="matrix(0.124673,0.992198,-0.992198,0.124673,2566.8,-2499.79)">
            <path d="M3008.41,1867.66C3008.41,1866.6 3008.61,1865.59 3009,1864.61C3009.39,1863.64 3009.93,1862.81 3010.63,1862.11C3011.32,1861.41 3012.14,1860.86 3013.09,1860.44C3014.03,1860.03 3015.03,1859.82 3016.09,1859.82C3017.15,1859.82 3018.16,1860.03 3019.14,1860.44C3020.11,1860.86 3020.94,1861.41 3021.64,1862.11C3022.33,1862.81 3022.89,1863.64 3023.31,1864.61C3023.72,1865.59 3023.93,1866.6 3023.93,1867.66C3023.93,1868.99 3023.74,1870.75 3023.35,1872.92C3022.96,1875.09 3022.47,1877.35 3021.89,1879.72C3021.3,1882.08 3020.67,1884.36 3019.97,1886.56C3019.28,1888.75 3018.65,1890.52 3018.09,1891.86L3042.96,1889.94C3044.46,1886.43 3045.89,1883.26 3047.25,1880.42C3048.62,1877.59 3049.98,1875.18 3051.34,1873.21C3052.7,1871.23 3054.05,1869.7 3055.39,1868.62C3056.72,1867.53 3058.09,1866.99 3059.48,1866.99C3061.2,1866.99 3062.55,1867.51 3063.52,1868.54C3064.5,1869.56 3064.98,1871.14 3064.98,1873.25C3064.98,1874.42 3064.87,1875.63 3064.65,1876.88C3064.43,1878.13 3064.15,1879.4 3063.82,1880.67C3063.48,1881.95 3063.15,1883.21 3062.81,1884.43C3062.48,1885.65 3062.2,1886.79 3061.98,1887.85C3062.37,1887.8 3062.8,1887.74 3063.27,1887.68C3063.75,1887.63 3064.2,1887.6 3064.65,1887.6C3065.1,1887.6 3065.46,1887.66 3065.74,1887.77C3066.01,1887.88 3066.15,1888.13 3066.15,1888.52C3066.15,1889.02 3065.83,1889.58 3065.19,1890.19C3064.55,1890.8 3063.84,1891.4 3063.07,1891.98C3062.29,1892.57 3061.58,1893.05 3060.94,1893.44C3060.3,1893.83 3059.95,1894.03 3059.89,1894.03C3059.28,1895.25 3058.38,1897.04 3057.18,1899.41C3055.99,1901.77 3054.62,1904.37 3053.09,1907.21C3051.57,1910.04 3049.9,1912.94 3048.09,1915.88C3046.28,1918.83 3044.45,1921.52 3042.58,1923.94C3040.72,1926.36 3038.91,1928.35 3037.16,1929.9C3035.41,1931.46 3033.78,1932.24 3032.28,1932.24C3031.55,1932.24 3031.01,1931.82 3030.65,1930.99C3030.29,1930.15 3030.05,1929.19 3029.94,1928.11C3029.83,1927.02 3029.77,1925.95 3029.77,1924.9L3029.77,1922.56C3029.83,1921.34 3030.23,1919.74 3030.98,1917.76C3031.74,1915.79 3032.61,1913.72 3033.61,1911.55C3034.61,1909.38 3035.64,1907.21 3036.7,1905.04C3037.76,1902.87 3038.62,1900.95 3039.29,1899.28L3011.84,1907.96C3011.28,1909.46 3010.61,1911.18 3009.83,1913.13C3009.05,1915.08 3008.22,1917.08 3007.33,1919.14C3006.44,1921.2 3005.51,1923.21 3004.53,1925.19C3003.56,1927.16 3002.59,1928.93 3001.61,1930.49C3000.64,1932.04 2999.7,1933.3 2998.78,1934.24C2997.86,1935.19 2997.01,1935.66 2996.23,1935.66C2995.4,1935.66 2994.61,1935.17 2993.86,1934.2C2993.1,1933.23 2992.45,1932.02 2991.89,1930.57C2991.34,1929.12 2990.89,1927.59 2990.56,1925.98C2990.23,1924.37 2990.06,1922.92 2990.06,1921.64C2990.06,1919.75 2990.46,1917.5 2991.27,1914.88C2992.08,1912.27 2993.09,1909.47 2994.31,1906.5C2995.54,1903.52 2996.93,1900.43 2998.49,1897.24C3000.04,1894.04 3001.55,1890.92 3002.99,1887.89C3004.44,1884.86 3005.79,1882 3007.04,1879.3C3008.29,1876.6 3009.25,1874.25 3009.92,1872.25C3008.91,1871.08 3008.41,1869.55 3008.41,1867.66Z" style="fill-rule:nonzero;"/>
        </g>
    </g>
</svg>
