<?xml version="1.0" encoding="UTF-8" standalone="no"?><!DOCTYPE svg PUBLIC "-//W3C//DTD SVG 1.1//EN" "http://www.w3.org/Graphics/SVG/1.1/DTD/svg11.dtd"><svg width="100%" height="100%" viewBox="0 0 1440 1575" version="1.1" xmlns="http://www.w3.org/2000/svg" xmlns:xlink="http://www.w3.org/1999/xlink" xml:space="preserve" xmlns:serif="http://www.serif.com/" style="fill-rule:evenodd;clip-rule:evenodd;stroke-linejoin:round;stroke-miterlimit:1.5;"><rect x="695.086" y="2.367" width="21.47" height="1526.23" style="fill:#c09021;"/><rect x="336.022" y="328.048" width="732.92" height="186.479" style="fill:#8d4f00;"/><g><path d="M436.043,366.96l-0,102.807l33.08,0l0,4.135l-37.786,0l0,-106.942l4.706,0Z" style="fill:#fff;fill-rule:nonzero;"/><path d="M512.613,475.613l-1.283,0c-9.031,0 -16.897,-3.398 -23.599,-10.195c-6.702,-6.796 -10.052,-14.71 -10.052,-23.741c-0,-9.03 3.327,-16.849 9.981,-23.456c6.654,-6.606 14.877,-9.91 24.668,-9.91c9.791,0 18.204,3.898 25.238,11.693l-44.773,44.202c6.179,4.943 12.12,7.415 17.824,7.415c5.703,-0 10.813,-1.307 15.328,-3.921c4.515,-2.614 8.246,-6.108 11.193,-10.481l0,7.273c-6.749,7.414 -14.924,11.121 -24.525,11.121Zm-1.497,-63.309c-7.557,-0 -14.259,2.923 -20.105,8.769c-5.846,5.846 -8.77,12.572 -8.77,20.176c0,7.605 2.52,14.259 7.558,19.963l41.493,-41.208c-5.894,-5.134 -12.619,-7.7 -20.176,-7.7Z" style="fill:#fff;fill-rule:nonzero;"/><path d="M565.086,412.019c-2.472,-0 -4.658,0.808 -6.559,2.424c-1.902,1.616 -2.852,3.612 -2.852,5.988c-0,2.377 1.069,4.563 3.208,6.56c2.139,1.996 4.706,3.826 7.7,5.489c2.994,1.664 6.012,3.446 9.054,5.347c3.042,1.902 5.633,4.326 7.771,7.272c2.139,2.947 3.209,6.322 3.209,10.124c-0,5.609 -2.115,10.385 -6.345,14.33c-4.231,3.945 -9.34,5.918 -15.329,5.918c-3.802,-0 -7.343,-0.832 -10.623,-2.495c-3.279,-1.664 -5.68,-3.874 -7.2,-6.631l-0,-6.844c3.612,7.985 9.41,11.977 17.395,11.977c4.944,0 9.102,-1.521 12.477,-4.562c3.375,-3.042 5.062,-6.441 5.062,-10.196c-0,-3.754 -1.07,-6.915 -3.208,-9.482c-2.139,-2.566 -4.73,-4.753 -7.771,-6.559c-3.042,-1.806 -6.061,-3.588 -9.055,-5.347c-2.994,-1.759 -5.561,-3.897 -7.7,-6.416c-2.139,-2.52 -3.208,-5.466 -3.208,-8.841c0,-3.375 1.355,-6.226 4.064,-8.555c2.709,-2.329 6.202,-3.494 10.48,-3.494c4.278,0 7.938,1.664 10.979,4.991l0,5.846c-3.041,-4.563 -6.891,-6.844 -11.549,-6.844Z" style="fill:#fff;fill-rule:nonzero;"/><path d="M652.065,366.96l4.706,0c9.886,0 18.299,3.399 25.238,10.196c6.939,6.796 10.409,14.805 10.409,24.026c-0,9.221 -3.589,17.158 -10.766,23.812c-7.177,6.654 -15.09,9.982 -23.741,9.982l-1.14,-0l-0,38.926l-4.706,0l0,-106.942Zm4.706,64.023l1.14,0c7.985,0 14.948,-2.947 20.89,-8.84c5.941,-5.894 8.911,-12.881 8.911,-20.961c0,-8.08 -3.018,-15.115 -9.054,-21.103c-6.036,-5.989 -12.952,-8.983 -20.747,-8.983l-1.14,-0l-0,59.887Z" style="fill:#fff;fill-rule:nonzero;"/><path d="M729.776,475.613l-1.283,0c-9.031,0 -16.897,-3.398 -23.599,-10.195c-6.701,-6.796 -10.052,-14.71 -10.052,-23.741c-0,-9.03 3.327,-16.849 9.981,-23.456c6.654,-6.606 14.877,-9.91 24.668,-9.91c9.791,0 18.204,3.898 25.238,11.693l-44.773,44.202c6.179,4.943 12.12,7.415 17.824,7.415c5.704,-0 10.813,-1.307 15.328,-3.921c4.516,-2.614 8.247,-6.108 11.194,-10.481l-0,7.273c-6.75,7.414 -14.925,11.121 -24.526,11.121Zm-1.497,-63.309c-7.557,-0 -14.259,2.923 -20.105,8.769c-5.846,5.846 -8.769,12.572 -8.769,20.176c-0,7.605 2.519,14.259 7.557,19.963l41.494,-41.208c-5.894,-5.134 -12.62,-7.7 -20.177,-7.7Z" style="fill:#fff;fill-rule:nonzero;"/><path d="M805.776,418.435c-4.182,-4.182 -8.793,-6.274 -13.831,-6.274c-5.038,0 -9.482,1.901 -13.332,5.704c-3.85,3.802 -5.775,8.222 -5.775,13.261l0,42.776l-4.563,0l0,-64.165l4.563,0l0,9.554c1.711,-3.232 4.373,-5.894 7.985,-7.985c3.613,-2.092 7.653,-3.137 12.12,-3.137c4.468,-0 8.746,1.521 12.833,4.563l0,5.703Z" style="fill:#fff;fill-rule:nonzero;"/><path d="M831.87,412.019c-2.471,-0 -4.658,0.808 -6.559,2.424c-1.901,1.616 -2.852,3.612 -2.852,5.988c0,2.377 1.07,4.563 3.209,6.56c2.138,1.996 4.705,3.826 7.699,5.489c2.995,1.664 6.013,3.446 9.055,5.347c3.042,1.902 5.632,4.326 7.771,7.272c2.139,2.947 3.208,6.322 3.208,10.124c0,5.609 -2.115,10.385 -6.345,14.33c-4.23,3.945 -9.34,5.918 -15.328,5.918c-3.803,-0 -7.344,-0.832 -10.623,-2.495c-3.28,-1.664 -5.68,-3.874 -7.201,-6.631l-0,-6.844c3.612,7.985 9.411,11.977 17.396,11.977c4.943,0 9.102,-1.521 12.476,-4.562c3.375,-3.042 5.062,-6.441 5.062,-10.196c0,-3.754 -1.069,-6.915 -3.208,-9.482c-2.139,-2.566 -4.729,-4.753 -7.771,-6.559c-3.042,-1.806 -6.06,-3.588 -9.054,-5.347c-2.995,-1.759 -5.561,-3.897 -7.7,-6.416c-2.139,-2.52 -3.209,-5.466 -3.209,-8.841c0,-3.375 1.355,-6.226 4.064,-8.555c2.709,-2.329 6.203,-3.494 10.481,-3.494c4.277,0 7.937,1.664 10.979,4.991l-0,5.846c-3.042,-4.563 -6.892,-6.844 -11.55,-6.844Z" style="fill:#fff;fill-rule:nonzero;"/><path d="M896.748,475.471c-9.125,-0 -16.968,-3.398 -23.527,-10.195c-6.559,-6.797 -9.839,-14.711 -9.839,-23.741c0,-9.031 3.327,-16.85 9.982,-23.456c6.654,-6.607 14.663,-9.91 24.026,-9.91c9.363,-0 17.348,3.303 23.955,9.91c6.607,6.606 9.91,14.449 9.91,23.527c-0,9.078 -3.232,16.992 -9.696,23.741c-6.464,6.749 -14.307,10.124 -23.527,10.124l-1.284,-0Zm29.944,-33.58c0,-8.032 -2.876,-14.996 -8.627,-20.889c-5.751,-5.894 -12.619,-8.841 -20.604,-8.841c-7.985,0 -14.9,2.971 -20.746,8.912c-5.847,5.941 -8.77,12.904 -8.77,20.889c0,7.985 2.923,14.901 8.77,20.747c5.846,5.846 12.785,8.769 20.818,8.769c8.032,0 14.9,-2.923 20.604,-8.769c5.703,-5.846 8.555,-12.785 8.555,-20.818Z" style="fill:#fff;fill-rule:nonzero;"/><path d="M958.775,412.019c-2.472,-0 -4.658,0.808 -6.56,2.424c-1.901,1.616 -2.851,3.612 -2.851,5.988c-0,2.377 1.069,4.563 3.208,6.56c2.139,1.996 4.705,3.826 7.7,5.489c2.994,1.664 6.012,3.446 9.054,5.347c3.042,1.902 5.632,4.326 7.771,7.272c2.139,2.947 3.209,6.322 3.209,10.124c-0,5.609 -2.115,10.385 -6.346,14.33c-4.23,3.945 -9.339,5.918 -15.328,5.918c-3.802,-0 -7.343,-0.832 -10.623,-2.495c-3.279,-1.664 -5.68,-3.874 -7.201,-6.631l0,-6.844c3.613,7.985 9.411,11.977 17.396,11.977c4.943,0 9.102,-1.521 12.477,-4.562c3.374,-3.042 5.062,-6.441 5.062,-10.196c-0,-3.754 -1.07,-6.915 -3.209,-9.482c-2.138,-2.566 -4.729,-4.753 -7.771,-6.559c-3.042,-1.806 -6.06,-3.588 -9.054,-5.347c-2.994,-1.759 -5.561,-3.897 -7.7,-6.416c-2.139,-2.52 -3.208,-5.466 -3.208,-8.841c-0,-3.375 1.354,-6.226 4.064,-8.555c2.709,-2.329 6.202,-3.494 10.48,-3.494c4.278,0 7.937,1.664 10.979,4.991l0,5.846c-3.042,-4.563 -6.891,-6.844 -11.549,-6.844Z" style="fill:#fff;fill-rule:nonzero;"/></g><path d="M591.972,1373.56c-51.425,-2.244 -135.075,-2.187 -248.543,0l0,109.065l248.543,-0c-0.4,-30.415 -2.258,-67.128 -0,-109.065Z" style="fill-opacity:0.43;"/><g><rect x="146.778" y="1342.58" width="288.138" height="140.951" style="fill:#683b00;"/><path d="M337.827,1347.63c-0,0 53.52,-92.892 95.915,-8.147c13.633,27.251 -95.915,8.147 -95.915,8.147Z" style="fill:#683b00;"/><path d="M106.376,1302.77l284.963,1.051c0.506,-0.507 -46.398,22.807 -50.64,43.809c-1.434,7.098 -288.427,0 -288.427,0c-0,0 26.022,-45.7 54.104,-44.86Z" style="fill:#ba6800;"/><rect x="52.272" y="1347.63" width="288.427" height="134.99" style="fill:#ba6800;"/><path d="M52.272,1348.96c105.124,-3.723 200.32,-3.308 288.427,0.06" style="fill:none;stroke:#884c00;stroke-width:2.66px;"/><path d="M52.272,1361.72c105.124,-3.723 200.32,-3.308 288.427,0.06" style="fill:none;stroke:#884c00;stroke-width:2.66px;"/><path d="M52.272,1372.78c105.124,-3.722 200.32,-3.308 288.427,0.06" style="fill:none;stroke:#884c00;stroke-width:2.66px;"/><rect x="171.851" y="1408.42" width="59.758" height="39.885" style="fill:#703f00;stroke:#884c00;stroke-width:2.66px;"/><ellipse cx="200.617" cy="1427.53" rx="9.368" ry="5.665" style="stroke:#251500;stroke-width:2.66px;"/></g><path d="M-5.599,478.821l522.727,-522.727l-135.285,11.958l-399.606,0l12.164,510.769Z" style="fill:#312200;"/><path d="M-5.599,478.821l522.727,-522.727l-135.285,11.958l-390.311,390.311l2.869,120.458Z" style="fill:#5b3f00;"/><path d="M1448.42,478.821l-522.727,-522.727l135.285,11.958l399.606,0l-12.164,510.769Z" style="fill:#312200;"/><path d="M1448.42,478.821l-522.727,-522.727l135.285,11.958l390.311,390.311l-2.869,120.458Z" style="fill:#5b3f00;"/><path d="M385.423,-31.948l-48.657,0l-342.365,342.365l-0,47.066l391.022,-389.431Z" style="fill:#675429;"/><path d="M1060.98,-31.948l48.657,0l342.365,342.365l-0,47.066l-391.022,-389.431Z" style="fill:#675429;"/><rect x="21.253" y="1482.2" width="1418.75" height="92.8" style="fill:#683b00;"/><rect x="-0.461" y="1482.2" width="1402.91" height="92.8" style="fill:#8d4f00;"/></svg>